<svg width="812" height="881" viewBox="0 0 812 881" fill="none" xmlns="http://www.w3.org/2000/svg">
<circle cx="647" cy="647" r="647" fill="#FAE269"/>
<circle cx="647" cy="647" r="583.28" fill="#FFCE00"/>
<circle cx="646.926" cy="646.926" r="516.694" fill="#FFA441"/>
<circle cx="646.926" cy="646.926" r="444.97" fill="#FF7E1D"/>
<path d="M554.405 351.189C555.072 353.677 555.113 356.379 554.44 359.187C553.764 362.007 552.369 364.918 550.209 367.719C548.049 370.521 545.196 373.116 541.767 375.305C538.34 377.493 534.454 379.199 530.335 380.303C526.216 381.406 521.998 381.872 517.936 381.691C513.872 381.51 510.103 380.688 506.831 379.342C503.561 377.996 500.897 376.173 498.901 374.068C496.915 371.973 495.599 369.612 494.933 367.125" stroke="#413D45" stroke-width="13.6824" stroke-linecap="round" stroke-linejoin="round"/>
<path d="M645.6 326.754C646.266 329.241 646.307 331.944 645.634 334.751C644.958 337.572 643.563 340.482 641.403 343.283C639.243 346.085 636.39 348.681 632.961 350.87C629.534 353.057 625.648 354.764 621.529 355.867C617.411 356.971 613.192 357.436 609.13 357.255C605.066 357.074 601.298 356.253 598.026 354.906C594.755 353.56 592.091 351.738 590.096 349.633C588.109 347.538 586.793 345.177 586.127 342.689" stroke="#413D45" stroke-width="13.6824" stroke-linecap="round" stroke-linejoin="round"/>
<path d="M721.858 341.734C717.024 353.967 708.364 366.34 696.237 378.126C684.109 389.914 668.788 400.848 651.101 410.262C633.416 419.676 613.769 427.357 593.288 432.844C572.807 438.332 551.952 441.504 531.929 442.194C511.905 442.884 493.169 441.076 476.772 436.932C460.377 432.787 446.691 426.403 436.388 418.225" stroke="#413D45" stroke-width="13.6824" stroke-linecap="round" stroke-linejoin="round"/>
</svg>
